<svg width="214" height="190" viewBox="0 0 214 190" fill="none" xmlns="http://www.w3.org/2000/svg">
<path d="M77.2302 119.006C77.6071 119.296 78.0679 119.456 78.5434 119.462L134.191 120.142C134.664 120.137 135.125 119.989 135.515 119.719L203.649 69.9084C203.919 69.7024 204.141 69.4387 204.296 69.1364C204.452 68.8341 204.539 68.5009 204.549 68.1609C204.559 67.8091 204.477 67.4608 204.312 67.1503C204.146 66.8399 203.902 66.5781 203.604 66.3909L115.303 3.76494C113.106 2.18709 110.477 1.32306 107.772 1.28999C105.067 1.25692 102.418 2.0564 100.183 3.58006L10.2905 63.9392C10.0199 64.1452 9.79858 64.4089 9.64278 64.7112C9.48698 65.0135 9.40059 65.3468 9.38993 65.6867C9.34494 66.0453 9.40135 66.4094 9.55274 66.7376C9.70413 67.0658 9.94445 67.345 10.2465 67.5436L77.2302 119.006Z" fill="#FE791B"/>
<path d="M150.927 124.743C150.654 124.967 150.432 125.246 150.277 125.563C150.121 125.879 150.036 126.226 150.026 126.579C150.055 126.922 150.154 127.256 150.317 127.56C150.479 127.865 150.702 128.133 150.971 128.349L180.009 148.047C180.819 148.489 181.527 149.096 182.087 149.829C182.648 150.562 183.048 151.405 183.263 152.302C183.477 153.2 183.501 154.132 183.332 155.039C183.163 155.946 182.806 156.808 182.283 157.569C181.761 158.329 181.084 158.971 180.298 159.454C179.512 159.937 178.633 160.249 177.718 160.37C176.803 160.492 175.873 160.42 174.988 160.16C174.103 159.899 173.282 159.456 172.579 158.858L135.521 133.523C135.121 133.401 134.694 133.396 134.291 133.508L78.0281 132.82C77.6277 132.698 77.2007 132.693 76.7974 132.805L39.2172 157.404C38.484 157.874 37.6654 158.195 36.8081 158.349C35.9508 158.503 35.0716 158.486 34.2207 158.3C32.5022 157.925 31.0033 156.882 30.0537 155.401C29.5835 154.668 29.2623 153.849 29.1084 152.992C28.9546 152.135 28.9711 151.256 29.157 150.405C29.5326 148.686 30.5754 147.187 32.0561 146.238L61.4787 127.254C61.7433 127.048 61.9551 126.782 62.0965 126.478C62.2378 126.174 62.3046 125.841 62.2914 125.506C62.3098 125.15 62.2414 124.795 62.0922 124.472C61.943 124.148 61.7174 123.866 61.4349 123.649L4.81893 79.9622C4.48523 79.7275 4.08835 79.5992 3.68043 79.5942C3.2725 79.5893 2.8726 79.7078 2.53327 79.9342C2.18769 80.0862 1.8892 80.3281 1.66895 80.6347C1.44869 80.9413 1.31473 81.3014 1.28103 81.6774L0.212558 169.06C0.15554 173.723 1.95324 178.218 5.2102 181.555C8.46715 184.893 12.9166 186.8 17.5796 186.857L193.4 189.007C198.063 189.064 202.558 187.266 205.895 184.009C209.233 180.752 211.14 176.303 211.197 171.64L212.264 84.3451C212.29 83.9239 212.189 83.5047 211.974 83.1415C211.759 82.7784 211.44 82.4881 211.058 82.3081C210.716 82.0943 210.322 81.9786 209.919 81.9736C209.516 81.9687 209.119 82.0747 208.773 82.2802L150.927 124.743Z" fill="#FE791B"/>
</svg>
